# xmcd CD database file
#
# Track frame offsets:
#	150
#	11830
#	22847
#	37970
#	51240
#	65105
#	79177
#
# Disc length: 1716 seconds
#
# Revision: 0
# Processed by: cddbd v1.4PL0 Copyright (c) Steve Scherf et al.
# Submitted via: CDex 1.50beta8
#
DISCID=5306b207
DTITLE=Acetone - I Guess I Would
DYEAR=1995
DGENRE=Country
TTITLE0=Juanita
TTITLE1=The Late John Garfield Blues
TTITLE2=I Guess I Would
TTITLE3=Sometime You Just Can't Win
TTITLE4=All for the Love of a Girl
TTITLE5=How Sweet I Roamed
TTITLE6=Border Lord
EXTD=YEAR: 1995
EXTT0=
EXTT1=
EXTT2=
EXTT3=
EXTT4=
EXTT5=
EXTT6=
PLAYORDER=
